{
	"asset": {
		"generator": "Khronos glTF Blender I/O v3.6.27",
		"version": "2.0"
	},
	"extensionsUsed": [
		"KHR_lights_punctual"
	],
	"extensionsRequired": [
		"KHR_lights_punctual"
	],
	"extensions": {
		"KHR_lights_punctual": {
			"lights": [
				{
					"color": [
						1,
						1,
						1
					],
					"intensity": 1087.0282613176453,
					"type": "point",
					"name": "Point"
				},
				{
					"color": [
						1,
						1,
						1
					],
					"intensity": 2717.5706532941126,
					"type": "point",
					"name": "Point.002"
				},
				{
					"color": [
						1,
						1,
						1
					],
					"intensity": 2717.5706532941126,
					"type": "point",
					"name": "Point.001"
				}
			]
		}
	},
	"scene": 1,
	"scenes": [
		{
			"name": "Grass",
			"nodes": [
				0,
				1,
				2,
				3,
				4,
				5,
				6,
				7,
				8
			]
		},
		{
			"name": "Root",
			"nodes": [
				9,
				10,
				11,
				12,
				13,
				14,
				15,
				16,
				17,
				18,
				19,
				20,
				21,
				22,
				23,
				24
			]
		},
		{
			"name": "Sand",
			"nodes": [
				25,
				26,
				27,
				28,
				29,
				30,
				31,
				32
			]
		}
	],
	"nodes": [
		{
			"name": "Grass:camera",
			"rotation": [
				0,
				0.7598526477813721,
				-0.6500954031944275,
				1.1665950694350613e-07
			],
			"translation": [
				0.10278856754302979,
				2.8866262435913086,
				-7.870828628540039
			]
		},
		{
			"mesh": 0,
			"name": "Grass-Base",
			"scale": [
				3.09328556060791,
				3.09328556060791,
				3.09328556060791
			]
		},
		{
			"mesh": 1,
			"name": "Sky",
			"scale": [
				0.9851802587509155,
				0.9851802587509155,
				0.9851802587509155
			]
		},
		{
			"extensions": {
				"KHR_lights_punctual": {
					"light": 0
				}
			},
			"name": "Point",
			"rotation": [
				-0.7071068286895752,
				0,
				0,
				0.7071068286895752
			],
			"translation": [
				2.561054229736328,
				4.510209083557129,
				-3.444432497024536
			]
		},
		{
			"name": "Grass:p",
			"rotation": [
				0,
				0.4020140469074249,
				0,
				0.915633499622345
			],
			"translation": [
				2.7079315185546875,
				0,
				2.1476917266845703
			]
		},
		{
			"name": "Grass:ch0",
			"rotation": [
				0,
				-0.6385916471481323,
				0,
				0.7695457935333252
			],
			"translation": [
				-1.8346984386444092,
				0,
				1.390772819519043
			]
		},
		{
			"name": "Grass:ch1",
			"rotation": [
				0,
				-0.5256598591804504,
				0,
				0.8506948351860046
			],
			"translation": [
				-0.96246337890625,
				0,
				4.0431694984436035
			]
		},
		{
			"name": "Grass:ch2",
			"rotation": [
				0,
				-0.5256598591804504,
				0,
				0.8506948351860046
			],
			"translation": [
				-3.06119704246521,
				0,
				4.149578094482422
			]
		},
		{
			"extensions": {
				"KHR_lights_punctual": {
					"light": 1
				}
			},
			"name": "Point.002",
			"rotation": [
				-0.7071068286895752,
				0,
				0,
				0.7071068286895752
			],
			"translation": [
				-3.822603225708008,
				3.962785243988037,
				-1.6822059154510498
			]
		},
		{
			"name": "Grass:camera",
			"rotation": [
				0,
				0.7598526477813721,
				-0.6500954031944275,
				1.1665950694350613e-07
			],
			"translation": [
				0.10278856754302979,
				2.8866262435913086,
				-7.870828628540039
			]
		},
		{
			"mesh": 0,
			"name": "Grass-Base",
			"scale": [
				3.09328556060791,
				3.09328556060791,
				3.09328556060791
			]
		},
		{
			"mesh": 2,
			"name": "Sky",
			"scale": [
				0.9851802587509155,
				0.9851802587509155,
				0.9851802587509155
			]
		},
		{
			"extensions": {
				"KHR_lights_punctual": {
					"light": 0
				}
			},
			"name": "Point",
			"rotation": [
				-0.7071068286895752,
				0,
				0,
				0.7071068286895752
			],
			"translation": [
				2.561054229736328,
				4.510209083557129,
				-3.444432497024536
			]
		},
		{
			"name": "Grass:p",
			"rotation": [
				0,
				0.4020140469074249,
				0,
				0.915633499622345
			],
			"translation": [
				2.7079315185546875,
				0,
				2.1476917266845703
			]
		},
		{
			"name": "Grass:ch0",
			"rotation": [
				0,
				-0.6385916471481323,
				0,
				0.7695457935333252
			],
			"translation": [
				-1.8346984386444092,
				0,
				1.390772819519043
			]
		},
		{
			"name": "Grass:ch1",
			"rotation": [
				0,
				-0.5256598591804504,
				0,
				0.8506948351860046
			],
			"translation": [
				-0.96246337890625,
				0,
				4.0431694984436035
			]
		},
		{
			"name": "Grass:ch2",
			"rotation": [
				0,
				-0.5256598591804504,
				0,
				0.8506948351860046
			],
			"translation": [
				-3.06119704246521,
				0,
				4.149578094482422
			]
		},
		{
			"extensions": {
				"KHR_lights_punctual": {
					"light": 1
				}
			},
			"name": "Point.002",
			"rotation": [
				-0.7071068286895752,
				0,
				0,
				0.7071068286895752
			],
			"translation": [
				-3.822603225708008,
				3.962785243988037,
				-1.6822059154510498
			]
		},
		{
			"name": "Sand:camera",
			"rotation": [
				0,
				0.7598526477813721,
				-0.6500954031944275,
				1.1665950694350613e-07
			],
			"translation": [
				0.10278856754302979,
				2.8866262435913086,
				-7.870828628540039
			]
		},
		{
			"mesh": 3,
			"name": "Grass-Base.001",
			"scale": [
				3.09328556060791,
				3.09328556060791,
				3.09328556060791
			]
		},
		{
			"mesh": 4,
			"name": "Sky.001",
			"scale": [
				0.9851802587509155,
				0.9851802587509155,
				0.9851802587509155
			]
		},
		{
			"name": "Sand:p",
			"rotation": [
				0,
				0.4020140469074249,
				0,
				0.915633499622345
			],
			"translation": [
				2.7079315185546875,
				0,
				2.1476917266845703
			]
		},
		{
			"name": "Sand:ch0",
			"rotation": [
				0,
				-0.6385916471481323,
				0,
				0.7695457935333252
			],
			"translation": [
				-1.8346984386444092,
				0,
				1.390772819519043
			]
		},
		{
			"name": "Sand:ch1",
			"rotation": [
				0,
				-0.5256598591804504,
				0,
				0.8506948351860046
			],
			"translation": [
				-0.96246337890625,
				0,
				4.0431694984436035
			]
		},
		{
			"name": "Sand:ch2",
			"rotation": [
				0,
				-0.5256598591804504,
				0,
				0.8506948351860046
			],
			"translation": [
				-3.06119704246521,
				0,
				4.149578094482422
			]
		},
		{
			"name": "Sand:camera",
			"rotation": [
				0,
				0.7598526477813721,
				-0.6500954031944275,
				1.1665950694350613e-07
			],
			"translation": [
				0.10278856754302979,
				2.8866262435913086,
				-7.870828628540039
			]
		},
		{
			"mesh": 3,
			"name": "Grass-Base.001",
			"scale": [
				3.09328556060791,
				3.09328556060791,
				3.09328556060791
			]
		},
		{
			"mesh": 5,
			"name": "Sky.001",
			"scale": [
				0.9851802587509155,
				0.9851802587509155,
				0.9851802587509155
			]
		},
		{
			"extensions": {
				"KHR_lights_punctual": {
					"light": 2
				}
			},
			"name": "Point.001",
			"rotation": [
				-0.7071068286895752,
				0,
				0,
				0.7071068286895752
			],
			"translation": [
				2.561054229736328,
				4.510209083557129,
				-3.444432497024536
			]
		},
		{
			"name": "Sand:p",
			"rotation": [
				0,
				0.4020140469074249,
				0,
				0.915633499622345
			],
			"translation": [
				2.7079315185546875,
				0,
				2.1476917266845703
			]
		},
		{
			"name": "Sand:ch0",
			"rotation": [
				0,
				-0.6385916471481323,
				0,
				0.7695457935333252
			],
			"translation": [
				-1.8346984386444092,
				0,
				1.390772819519043
			]
		},
		{
			"name": "Sand:ch1",
			"rotation": [
				0,
				-0.5256598591804504,
				0,
				0.8506948351860046
			],
			"translation": [
				-0.96246337890625,
				0,
				4.0431694984436035
			]
		},
		{
			"name": "Sand:ch2",
			"rotation": [
				0,
				-0.5256598591804504,
				0,
				0.8506948351860046
			],
			"translation": [
				-3.06119704246521,
				0,
				4.149578094482422
			]
		}
	],
	"meshes": [
		{
			"name": "Plane",
			"primitives": [
				{
					"attributes": {
						"POSITION": 0,
						"NORMAL": 1,
						"TEXCOORD_0": 2
					},
					"indices": 3
				}
			]
		},
		{
			"name": "Mesh",
			"primitives": [
				{
					"attributes": {
						"POSITION": 4,
						"NORMAL": 5,
						"TEXCOORD_0": 6
					},
					"indices": 7
				}
			]
		},
		{
			"name": "Mesh",
			"primitives": [
				{
					"attributes": {
						"POSITION": 8,
						"NORMAL": 9,
						"TEXCOORD_0": 10
					},
					"indices": 7
				}
			]
		},
		{
			"name": "Plane.001",
			"primitives": [
				{
					"attributes": {
						"POSITION": 11,
						"NORMAL": 12,
						"TEXCOORD_0": 13
					},
					"indices": 14
				}
			]
		},
		{
			"name": "Mesh",
			"primitives": [
				{
					"attributes": {
						"POSITION": 15,
						"NORMAL": 16,
						"TEXCOORD_0": 17
					},
					"indices": 7
				}
			]
		},
		{
			"name": "Mesh",
			"primitives": [
				{
					"attributes": {
						"POSITION": 18,
						"NORMAL": 19,
						"TEXCOORD_0": 20
					},
					"indices": 7
				}
			]
		}
	],
	"accessors": [
		{
			"bufferView": 0,
			"componentType": 5126,
			"count": 80,
			"max": [
				5.197007179260254,
				0.17135606706142426,
				5.197007179260254
			],
			"min": [
				-5.197007179260254,
				-0.037465330213308334,
				-5.197007179260254
			],
			"type": "VEC3"
		},
		{
			"bufferView": 1,
			"componentType": 5126,
			"count": 80,
			"type": "VEC3"
		},
		{
			"bufferView": 2,
			"componentType": 5126,
			"count": 80,
			"type": "VEC2"
		},
		{
			"bufferView": 3,
			"componentType": 5123,
			"count": 168,
			"type": "SCALAR"
		},
		{
			"bufferView": 4,
			"componentType": 5126,
			"count": 154,
			"max": [
				15.857548713684082,
				18.863248825073242,
				15.92236328125
			],
			"min": [
				-15.857547760009766,
				-18.863248825073242,
				-15.92236328125
			],
			"type": "VEC3"
		},
		{
			"bufferView": 5,
			"componentType": 5126,
			"count": 154,
			"type": "VEC3"
		},
		{
			"bufferView": 6,
			"componentType": 5126,
			"count": 154,
			"type": "VEC2"
		},
		{
			"bufferView": 7,
			"componentType": 5123,
			"count": 792,
			"type": "SCALAR"
		},
		{
			"bufferView": 8,
			"componentType": 5126,
			"count": 154,
			"max": [
				15.857548713684082,
				18.863248825073242,
				15.92236328125
			],
			"min": [
				-15.857547760009766,
				-18.863248825073242,
				-15.92236328125
			],
			"type": "VEC3"
		},
		{
			"bufferView": 9,
			"componentType": 5126,
			"count": 154,
			"type": "VEC3"
		},
		{
			"bufferView": 10,
			"componentType": 5126,
			"count": 154,
			"type": "VEC2"
		},
		{
			"bufferView": 11,
			"componentType": 5126,
			"count": 74,
			"max": [
				5.197007179260254,
				0.3028387427330017,
				5.197007179260254
			],
			"min": [
				-5.197007179260254,
				0,
				-5.197007179260254
			],
			"type": "VEC3"
		},
		{
			"bufferView": 12,
			"componentType": 5126,
			"count": 74,
			"type": "VEC3"
		},
		{
			"bufferView": 13,
			"componentType": 5126,
			"count": 74,
			"type": "VEC2"
		},
		{
			"bufferView": 14,
			"componentType": 5123,
			"count": 150,
			"type": "SCALAR"
		},
		{
			"bufferView": 15,
			"componentType": 5126,
			"count": 154,
			"max": [
				15.857548713684082,
				18.863248825073242,
				15.92236328125
			],
			"min": [
				-15.857547760009766,
				-18.863248825073242,
				-15.92236328125
			],
			"type": "VEC3"
		},
		{
			"bufferView": 16,
			"componentType": 5126,
			"count": 154,
			"type": "VEC3"
		},
		{
			"bufferView": 17,
			"componentType": 5126,
			"count": 154,
			"type": "VEC2"
		},
		{
			"bufferView": 18,
			"componentType": 5126,
			"count": 154,
			"max": [
				15.857548713684082,
				18.863248825073242,
				15.92236328125
			],
			"min": [
				-15.857547760009766,
				-18.863248825073242,
				-15.92236328125
			],
			"type": "VEC3"
		},
		{
			"bufferView": 19,
			"componentType": 5126,
			"count": 154,
			"type": "VEC3"
		},
		{
			"bufferView": 20,
			"componentType": 5126,
			"count": 154,
			"type": "VEC2"
		}
	],
	"bufferViews": [
		{
			"buffer": 0,
			"byteLength": 960,
			"byteOffset": 0,
			"target": 34962
		},
		{
			"buffer": 0,
			"byteLength": 960,
			"byteOffset": 960,
			"target": 34962
		},
		{
			"buffer": 0,
			"byteLength": 640,
			"byteOffset": 1920,
			"target": 34962
		},
		{
			"buffer": 0,
			"byteLength": 336,
			"byteOffset": 2560,
			"target": 34963
		},
		{
			"buffer": 0,
			"byteLength": 1848,
			"byteOffset": 2896,
			"target": 34962
		},
		{
			"buffer": 0,
			"byteLength": 1848,
			"byteOffset": 4744,
			"target": 34962
		},
		{
			"buffer": 0,
			"byteLength": 1232,
			"byteOffset": 6592,
			"target": 34962
		},
		{
			"buffer": 0,
			"byteLength": 1584,
			"byteOffset": 7824,
			"target": 34963
		},
		{
			"buffer": 0,
			"byteLength": 1848,
			"byteOffset": 9408,
			"target": 34962
		},
		{
			"buffer": 0,
			"byteLength": 1848,
			"byteOffset": 11256,
			"target": 34962
		},
		{
			"buffer": 0,
			"byteLength": 1232,
			"byteOffset": 13104,
			"target": 34962
		},
		{
			"buffer": 0,
			"byteLength": 888,
			"byteOffset": 14336,
			"target": 34962
		},
		{
			"buffer": 0,
			"byteLength": 888,
			"byteOffset": 15224,
			"target": 34962
		},
		{
			"buffer": 0,
			"byteLength": 592,
			"byteOffset": 16112,
			"target": 34962
		},
		{
			"buffer": 0,
			"byteLength": 300,
			"byteOffset": 16704,
			"target": 34963
		},
		{
			"buffer": 0,
			"byteLength": 1848,
			"byteOffset": 17004,
			"target": 34962
		},
		{
			"buffer": 0,
			"byteLength": 1848,
			"byteOffset": 18852,
			"target": 34962
		},
		{
			"buffer": 0,
			"byteLength": 1232,
			"byteOffset": 20700,
			"target": 34962
		},
		{
			"buffer": 0,
			"byteLength": 1848,
			"byteOffset": 21932,
			"target": 34962
		},
		{
			"buffer": 0,
			"byteLength": 1848,
			"byteOffset": 23780,
			"target": 34962
		},
		{
			"buffer": 0,
			"byteLength": 1232,
			"byteOffset": 25628,
			"target": 34962
		}
	],
	"buffers": [
		{
			"byteLength": 26860,
			"uri": "data:application/octet-stream;base64,"
		}
	]
}