{
	"asset":{
		"generator":"Khronos glTF Blender I/O v3.6.27",
		"version":"2.0"
	},
	"extensionsUsed":[
		"KHR_lights_punctual"
	],
	"extensionsRequired":[
		"KHR_lights_punctual"
	],
	"extensions":{
		"KHR_lights_punctual":{
			"lights":[
				{
					"color":[
						0.7742844820022583,
						1,
						1
					],
					"intensity":1359.1700065135956,
					"type":"directional",
					"name":"Sun"
				},
				{
					"color":[
						0.7410721778869629,
						0.6616226434707642,
						1
					],
					"intensity":652.2169567905871,
					"type":"point",
					"name":"Sun.001"
				},
				{
					"color":[
						0.9457894563674927,
						1,
						0.7440405488014221
					],
					"intensity":434.8113045270581,
					"type":"point",
					"name":"Sun.002"
				}
			]
		}
	},
	"scene":0,
	"scenes":[
		{
			"name":"Root",
			"nodes":[
				0,
				1,
				2,
				3,
				18,
				19,
				20
			]
		}
	],
	"nodes":[
		{
			"extensions":{
				"KHR_lights_punctual":{
					"light":0
				}
			},
			"name":"Sun",
			"rotation":[
				-0.28447869420051575,
				0.231916606426239,
				-0.27718570828437805,
				0.8879497051239014
			]
		},
		{
			"mesh":0,
			"name":"Plane"
		},
		{
			"mesh":1,
			"name":"Plane.001",
			"translation":[
				0,
				0.41935038566589355,
				0
			]
		},
		{
			"mesh":2,
			"name":"Plane.002",
			"translation":[
				0,
				0.41935038566589355,
				0
			]
		},
		{
			"name":"Location.000",
			"translation":[
				-2.149937391281128,
				4.741243839263916,
				3.5401523113250732
			]
		},
		{
			"name":"Location.001",
			"translation":[
				-0.052663832902908325,
				3.4901931285858154,
				1.6720430850982666
			]
		},
		{
			"name":"Location.002",
			"translation":[
				-1.8016283512115479,
				2.4570767879486084,
				-0.41250079870224
			]
		},
		{
			"name":"Location.003",
			"translation":[
				-3.508481740951538,
				2.602226972579956,
				-0.06315075606107712
			]
		},
		{
			"name":"Location.004",
			"translation":[
				-4.178048610687256,
				3.865689992904663,
				2.6024787425994873
			]
		},
		{
			"name":"Location.005",
			"translation":[
				-5.258337497711182,
				2.8926000595092773,
				-4.087151527404785
			]
		},
		{
			"name":"Location.006",
			"translation":[
				-4.81571102142334,
				2.784444808959961,
				-1.7082324028015137
			]
		},
		{
			"name":"Location.007",
			"translation":[
				-3.4340667724609375,
				2.46588134765625,
				-2.4664392471313477
			]
		},
		{
			"name":"Location.008",
			"translation":[
				3.5385351181030273,
				3.043544292449951,
				1.3642592430114746
			]
		},
		{
			"name":"Location.009",
			"translation":[
				4.904919147491455,
				2.953321933746338,
				2.3981335163116455
			]
		},
		{
			"name":"Location.010",
			"translation":[
				1.8315333127975464,
				3.4615557193756104,
				3.0036773681640625
			]
		},
		{
			"name":"Location.011",
			"translation":[
				4.6685614585876465,
				2.722378730773926,
				-2.1180055141448975
			]
		},
		{
			"name":"Location.012",
			"translation":[
				4.442692279815674,
				2.3612866401672363,
				-5.244306564331055
			]
		},
		{
			"name":"Location.013",
			"translation":[
				5.343231678009033,
				3.000124454498291,
				0.17858120799064636
			]
		},
		{
			"children":[
				4,
				5,
				6,
				7,
				8,
				9,
				10,
				11,
				12,
				13,
				14,
				15,
				16,
				17
			],
			"name":"Locations"
		},
		{
			"extensions":{
				"KHR_lights_punctual":{
					"light":1
				}
			},
			"name":"Sun.001",
			"rotation":[
				-0.28447869420051575,
				0.231916606426239,
				-0.27718570828437805,
				0.8879497051239014
			],
			"translation":[
				-5.480609893798828,
				17.17725372314453,
				-6.901255130767822
			]
		},
		{
			"extensions":{
				"KHR_lights_punctual":{
					"light":2
				}
			},
			"name":"Sun.002",
			"rotation":[
				-0.28447869420051575,
				0.231916606426239,
				-0.27718570828437805,
				0.8879497051239014
			],
			"translation":[
				7.779125213623047,
				16.667675018310547,
				6.279016494750977
			]
		}
	],
	"meshes":[
		{
			"name":"Plane.002",
			"primitives":[
				{
					"attributes":{
						"POSITION":0,
						"NORMAL":1,
						"TEXCOORD_0":2
					},
					"indices":3
				}
			]
		},
		{
			"name":"Plane.001",
			"primitives":[
				{
					"attributes":{
						"POSITION":4,
						"NORMAL":5,
						"TEXCOORD_0":6
					},
					"indices":7
				}
			]
		},
		{
			"name":"Plane.003",
			"primitives":[
				{
					"attributes":{
						"POSITION":8,
						"NORMAL":9,
						"TEXCOORD_0":10
					},
					"indices":11
				}
			]
		}
	],
	"accessors":[
		{
			"bufferView":0,
			"componentType":5126,
			"count":8274,
			"max":[
				9.70034408569336,
				4.6741943359375,
				10.43348503112793
			],
			"min":[
				-11.056285858154297,
				0.11191270500421524,
				-9.241645812988281
			],
			"type":"VEC3"
		},
		{
			"bufferView":1,
			"componentType":5126,
			"count":8274,
			"type":"VEC3"
		},
		{
			"bufferView":2,
			"componentType":5126,
			"count":8274,
			"type":"VEC2"
		},
		{
			"bufferView":3,
			"componentType":5123,
			"count":8694,
			"type":"SCALAR"
		},
		{
			"bufferView":4,
			"componentType":5126,
			"count":802,
			"max":[
				19.064598083496094,
				8.233572006225586,
				16.438692092895508
			],
			"min":[
				-18.0131893157959,
				-1.9725463390350342,
				-15.328446388244629
			],
			"type":"VEC3"
		},
		{
			"bufferView":5,
			"componentType":5126,
			"count":802,
			"type":"VEC3"
		},
		{
			"bufferView":6,
			"componentType":5126,
			"count":802,
			"type":"VEC2"
		},
		{
			"bufferView":7,
			"componentType":5123,
			"count":822,
			"type":"SCALAR"
		},
		{
			"bufferView":8,
			"componentType":5126,
			"count":2326,
			"max":[
				31.84018898010254,
				8.331136703491211,
				32.63030242919922
			],
			"min":[
				-26.190126419067383,
				-1.6204819679260254,
				-24.284778594970703
			],
			"type":"VEC3"
		},
		{
			"bufferView":9,
			"componentType":5126,
			"count":2326,
			"type":"VEC3"
		},
		{
			"bufferView":10,
			"componentType":5126,
			"count":2326,
			"type":"VEC2"
		},
		{
			"bufferView":11,
			"componentType":5123,
			"count":2328,
			"type":"SCALAR"
		}
	],
	"bufferViews":[
		{
			"buffer":0,
			"byteLength":99288,
			"byteOffset":0,
			"target":34962
		},
		{
			"buffer":0,
			"byteLength":99288,
			"byteOffset":99288,
			"target":34962
		},
		{
			"buffer":0,
			"byteLength":66192,
			"byteOffset":198576,
			"target":34962
		},
		{
			"buffer":0,
			"byteLength":17388,
			"byteOffset":264768,
			"target":34963
		},
		{
			"buffer":0,
			"byteLength":9624,
			"byteOffset":282156,
			"target":34962
		},
		{
			"buffer":0,
			"byteLength":9624,
			"byteOffset":291780,
			"target":34962
		},
		{
			"buffer":0,
			"byteLength":6416,
			"byteOffset":301404,
			"target":34962
		},
		{
			"buffer":0,
			"byteLength":1644,
			"byteOffset":307820,
			"target":34963
		},
		{
			"buffer":0,
			"byteLength":27912,
			"byteOffset":309464,
			"target":34962
		},
		{
			"buffer":0,
			"byteLength":27912,
			"byteOffset":337376,
			"target":34962
		},
		{
			"buffer":0,
			"byteLength":18608,
			"byteOffset":365288,
			"target":34962
		},
		{
			"buffer":0,
			"byteLength":4656,
			"byteOffset":383896,
			"target":34963
		}
	],
	"buffers":[
		{
			"byteLength":388552,
			"uri":"data:application/octet-stream;base64,"
		}
	]
}
